<?xml version="1.0" encoding="iso-8859-1"?>
<!-- Uploaded to: SVG Repo, www.svgrepo.com, Generator: SVG Repo Mixer Tools -->
<svg height="800px" width="800px" version="1.1" id="Layer_1" xmlns="http://www.w3.org/2000/svg" xmlns:xlink="http://www.w3.org/1999/xlink" 
	 viewBox="0 0 511.785 511.785" xml:space="preserve">
<g transform="translate(1)">
	<g>
		<path style="fill:#F7C518;" d="M66.148,146.778c-2.518,0-5.036-0.839-6.715-3.357c-2.518-3.357-1.679-9.233,1.679-11.751
			l33.574-25.18c3.357-2.518,9.233-1.679,11.751,1.679c2.518,3.357,1.679,9.233-1.679,11.751l-33.574,25.18
			C69.505,145.939,67.826,146.778,66.148,146.778z"/>
		<path style="fill:#F7C518;" d="M65.308,146.778c-1.679,0-3.357-0.839-5.036-1.679l-33.574-25.18
			c-3.357-2.518-4.197-8.393-1.679-11.751c2.518-3.357,8.393-4.197,11.751-1.679l20.144,15.108
			c0-64.63,52.879-117.508,117.508-117.508c5.036,0,8.393,3.357,8.393,8.393s-3.357,8.393-8.393,8.393
			c-55.397,0-100.721,45.325-100.721,100.721v16.787c0,3.357-1.679,5.875-5.036,7.554C67.826,146.778,66.148,146.778,65.308,146.778
			z"/>
		<path style="fill:#F7C518;" d="M435.459,406.975c-2.518,0-5.036-0.839-6.715-3.357c-2.518-3.357-1.679-9.233,1.679-11.751
			l33.574-25.18c3.357-2.518,9.233-1.679,11.751,1.679c2.518,3.357,1.679,9.233-1.679,11.751l-33.574,25.18
			C438.816,406.135,437.138,406.975,435.459,406.975z"/>
		<path style="fill:#F7C518;" d="M359.918,507.696c-5.036,0-8.393-3.357-8.393-8.393c0-5.036,3.357-8.393,8.393-8.393
			c55.397,0,100.721-45.325,100.721-100.721v-16.787c0-3.357,1.679-5.875,5.036-7.554c2.518-1.679,5.875-0.839,8.393,0.839
			l33.574,25.18c3.357,2.518,4.197,8.393,1.679,11.751c-2.518,3.357-8.393,4.197-11.751,1.679l-20.144-15.108
			C477.426,454.817,424.548,507.696,359.918,507.696z"/>
	</g>
	<path style="fill:#556080;" d="M157.636,466.568c0-4.197,3.357-8.393,8.393-8.393l0,0c4.197,0,8.393,4.197,8.393,8.393l0,0
		c0,4.197-4.197,8.393-8.393,8.393l0,0C160.993,474.962,157.636,471.604,157.636,466.568z M157.636,434.673
		c0-5.036,3.357-8.393,8.393-8.393l0,0c4.197,0,8.393,3.357,8.393,8.393l0,0c0,4.197-4.197,8.393-8.393,8.393l0,0
		C160.993,443.066,157.636,438.87,157.636,434.673z M157.636,401.939c0-4.197,3.357-8.393,8.393-8.393l0,0
		c4.197,0,8.393,4.197,8.393,8.393l0,0c0,5.036-4.197,8.393-8.393,8.393l0,0C160.993,410.332,157.636,406.975,157.636,401.939z
		 M157.636,369.204c0-5.036,3.357-8.393,8.393-8.393l0,0c4.197,0,8.393,3.357,8.393,8.393l0,0c0,4.197-4.197,8.393-8.393,8.393l0,0
		C160.993,377.598,157.636,374.24,157.636,369.204z M157.636,337.309c0-5.036,3.357-8.393,8.393-8.393l0,0
		c4.197,0,8.393,3.357,8.393,8.393l0,0c0,5.036-4.197,8.393-8.393,8.393l0,0C160.993,345.703,157.636,341.506,157.636,337.309z
		 M157.636,304.575c0-5.036,3.357-8.393,8.393-8.393l0,0c4.197,0,8.393,3.357,8.393,8.393l0,0c0,4.197-4.197,8.393-8.393,8.393l0,0
		C160.993,312.968,157.636,308.771,157.636,304.575z M157.636,271.84c0-4.197,3.357-8.393,8.393-8.393l0,0
		c4.197,0,8.393,4.197,8.393,8.393l0,0c0,4.197-4.197,8.393-8.393,8.393l0,0C160.993,280.234,157.636,276.876,157.636,271.84z
		 M157.636,239.945c0-5.036,3.357-8.393,8.393-8.393l0,0c4.197,0,8.393,3.357,8.393,8.393l0,0c0,5.036-4.197,8.393-8.393,8.393l0,0
		C160.993,248.339,157.636,244.142,157.636,239.945z M157.636,207.211c0-5.036,3.357-8.393,8.393-8.393l0,0
		c4.197,0,8.393,3.357,8.393,8.393l0,0c0,5.036-4.197,8.393-8.393,8.393l0,0C160.993,215.604,157.636,212.247,157.636,207.211z
		 M157.636,174.476c0-4.197,3.357-8.393,8.393-8.393l0,0c4.197,0,8.393,4.197,8.393,8.393l0,0c0,5.036-4.197,8.393-8.393,8.393l0,0
		C160.993,182.87,157.636,179.512,157.636,174.476z M157.636,142.581c0-5.036,3.357-8.393,8.393-8.393l0,0
		c4.197,0,8.393,3.357,8.393,8.393l0,0c0,4.197-4.197,8.393-8.393,8.393l0,0C160.993,150.975,157.636,146.778,157.636,142.581z
		 M157.636,109.847c0-5.036,3.357-8.393,8.393-8.393l0,0c4.197,0,8.393,3.357,8.393,8.393l0,0c0,5.036-4.197,8.393-8.393,8.393l0,0
		C160.993,118.24,157.636,114.044,157.636,109.847z M157.636,77.112c0-5.036,3.357-8.393,8.393-8.393l0,0
		c4.197,0,8.393,3.357,8.393,8.393l0,0c0,4.197-4.197,8.393-8.393,8.393l0,0C160.993,85.506,157.636,82.148,157.636,77.112z
		 M157.636,45.217c0-4.197,3.357-8.393,8.393-8.393l0,0c4.197,0,8.393,4.197,8.393,8.393l0,0c0,4.197-4.197,8.393-8.393,8.393l0,0
		C160.993,53.611,157.636,49.414,157.636,45.217z"/>
	<path style="fill:#556080;" d="M312.075,12.483c0-5.036,4.197-8.393,8.393-8.393l0,0c5.036,0,8.393,3.357,8.393,8.393l0,0
		c0,4.197-3.357,8.393-8.393,8.393l0,0C316.272,20.876,312.075,16.68,312.075,12.483z M281.02,12.483
		c0-5.036,3.357-8.393,8.393-8.393l0,0c4.197,0,8.393,3.357,8.393,8.393l0,0c0,4.197-4.197,8.393-8.393,8.393l0,0
		C285.216,20.876,281.02,16.68,281.02,12.483z M249.964,12.483c0-5.036,3.357-8.393,8.393-8.393l0,0
		c5.036,0,8.393,3.357,8.393,8.393l0,0c0,4.197-3.357,8.393-8.393,8.393l0,0C254.161,20.876,249.964,16.68,249.964,12.483z
		 M218.908,12.483c0-5.036,3.357-8.393,8.393-8.393l0,0c4.197,0,8.393,3.357,8.393,8.393l0,0c0,4.197-4.197,8.393-8.393,8.393l0,0
		C223.105,20.876,218.908,16.68,218.908,12.483z M188.692,12.483c0-5.036,3.357-8.393,8.393-8.393l0,0
		c5.036,0,8.393,3.357,8.393,8.393l0,0c0,4.197-3.357,8.393-8.393,8.393l0,0C192.049,20.876,188.692,16.68,188.692,12.483z"/>
	<path style="fill:#556080;" d="M343.131,466.568c0-5.036,4.197-8.393,8.393-8.393l0,0c4.197,0,8.393,3.357,8.393,8.393l0,0
		c0,4.197-4.197,8.393-8.393,8.393l0,0C347.328,474.962,343.131,471.604,343.131,466.568z M343.131,434.673
		c0-4.197,4.197-8.393,8.393-8.393l0,0c4.197,0,8.393,4.197,8.393,8.393l0,0c0,4.197-4.197,8.393-8.393,8.393l0,0
		C347.328,443.066,343.131,438.87,343.131,434.673z M343.131,401.939c0-4.197,4.197-8.393,8.393-8.393l0,0
		c4.197,0,8.393,4.197,8.393,8.393l0,0c0,5.036-4.197,8.393-8.393,8.393l0,0C347.328,410.332,343.131,406.975,343.131,401.939z
		 M343.131,369.204c0-5.036,4.197-8.393,8.393-8.393l0,0c4.197,0,8.393,3.357,8.393,8.393l0,0c0,5.036-4.197,8.393-8.393,8.393l0,0
		C347.328,377.598,343.131,374.24,343.131,369.204z M343.131,337.309c0-5.036,4.197-8.393,8.393-8.393l0,0
		c4.197,0,8.393,3.357,8.393,8.393l0,0c0,4.197-4.197,8.393-8.393,8.393l0,0C347.328,345.703,343.131,341.506,343.131,337.309z
		 M343.131,304.575c0-4.197,4.197-8.393,8.393-8.393l0,0c4.197,0,8.393,4.197,8.393,8.393l0,0c0,4.197-4.197,8.393-8.393,8.393l0,0
		C347.328,312.968,343.131,308.771,343.131,304.575z M343.131,271.84c0-5.036,4.197-8.393,8.393-8.393l0,0
		c4.197,0,8.393,3.357,8.393,8.393l0,0c0,5.036-4.197,8.393-8.393,8.393l0,0C347.328,280.234,343.131,276.876,343.131,271.84z
		 M343.131,239.945c0-4.197,4.197-8.393,8.393-8.393l0,0c4.197,0,8.393,4.197,8.393,8.393l0,0c0,4.197-4.197,8.393-8.393,8.393l0,0
		C347.328,248.339,343.131,244.142,343.131,239.945z M343.131,207.211c0-4.197,4.197-8.393,8.393-8.393l0,0
		c4.197,0,8.393,4.197,8.393,8.393l0,0c0,5.036-4.197,8.393-8.393,8.393l0,0C347.328,215.604,343.131,212.247,343.131,207.211z
		 M343.131,174.476c0-4.197,4.197-8.393,8.393-8.393l0,0c4.197,0,8.393,4.197,8.393,8.393l0,0c0,5.036-4.197,8.393-8.393,8.393l0,0
		C347.328,182.87,343.131,179.512,343.131,174.476z M343.131,142.581c0-5.036,4.197-8.393,8.393-8.393l0,0
		c4.197,0,8.393,3.357,8.393,8.393l0,0c0,5.036-4.197,8.393-8.393,8.393l0,0C347.328,150.975,343.131,146.778,343.131,142.581z
		 M343.131,109.847c0-4.197,4.197-8.393,8.393-8.393l0,0c4.197,0,8.393,4.197,8.393,8.393l0,0c0,5.036-4.197,8.393-8.393,8.393l0,0
		C347.328,118.24,343.131,114.044,343.131,109.847z M343.131,77.112c0-5.036,4.197-8.393,8.393-8.393l0,0
		c4.197,0,8.393,3.357,8.393,8.393l0,0c0,5.036-4.197,8.393-8.393,8.393l0,0C347.328,85.506,343.131,82.148,343.131,77.112z
		 M343.131,45.217c0-5.036,4.197-8.393,8.393-8.393l0,0c4.197,0,8.393,3.357,8.393,8.393l0,0c0,5.036-4.197,8.393-8.393,8.393l0,0
		C347.328,53.611,343.131,49.414,343.131,45.217z"/>
	<path style="fill:#556080;" d="M312.075,499.303c0-4.197,4.197-8.393,8.393-8.393l0,0c4.197,0,8.393,4.197,8.393,8.393l0,0
		c0,4.197-4.197,8.393-8.393,8.393l0,0C316.272,507.696,312.075,503.499,312.075,499.303z M281.02,499.303
		c0-4.197,3.357-8.393,8.393-8.393l0,0c5.036,0,8.393,4.197,8.393,8.393l0,0c0,4.197-3.357,8.393-8.393,8.393l0,0
		C285.216,507.696,281.02,503.499,281.02,499.303z M249.964,499.303c0-4.197,3.357-8.393,8.393-8.393l0,0
		c5.036,0,8.393,4.197,8.393,8.393l0,0c0,4.197-3.357,8.393-8.393,8.393l0,0C254.161,507.696,249.964,503.499,249.964,499.303z
		 M218.908,499.303c0-4.197,3.357-8.393,8.393-8.393l0,0c4.197,0,8.393,4.197,8.393,8.393l0,0c0,4.197-4.197,8.393-8.393,8.393l0,0
		C223.105,507.696,218.908,503.499,218.908,499.303z M188.692,499.303c0-4.197,3.357-8.393,8.393-8.393l0,0
		c4.197,0,8.393,4.197,8.393,8.393l0,0c0,4.197-4.197,8.393-8.393,8.393l0,0C192.049,507.696,188.692,503.499,188.692,499.303z"/>
	<g>
		<polygon style="fill:#F7C518;" points="7.393,348.221 133.295,348.221 133.295,163.565 7.393,163.565 		"/>
		<path style="fill:#F7C518;" d="M141.689,356.614H-1V155.171h142.689V356.614z M15.787,339.827h109.115V171.958H15.787V339.827z"/>
		<polygon style="fill:#F7C518;" points="368.311,348.221 494.213,348.221 494.213,163.565 368.311,163.565 		"/>
		<path style="fill:#F7C518;" d="M502.607,356.614H359.918V155.171h142.689V356.614z M376.705,339.827H485.82V171.958H376.705
			V339.827z"/>
	</g>
	<path d="M150.082,466.568c0-4.197,3.357-8.393,8.393-8.393l0,0c4.197,0,8.393,4.197,8.393,8.393l0,0
		c0,4.197-4.197,8.393-8.393,8.393l0,0C153.439,474.962,150.082,471.604,150.082,466.568z M150.082,434.673
		c0-5.036,3.357-8.393,8.393-8.393l0,0c4.197,0,8.393,3.357,8.393,8.393l0,0c0,4.197-4.197,8.393-8.393,8.393l0,0
		C153.439,443.066,150.082,438.87,150.082,434.673z M150.082,401.939c0-4.197,3.357-8.393,8.393-8.393l0,0
		c4.197,0,8.393,4.197,8.393,8.393l0,0c0,5.036-4.197,8.393-8.393,8.393l0,0C153.439,410.332,150.082,406.975,150.082,401.939z
		 M150.082,369.204c0-5.036,3.357-8.393,8.393-8.393l0,0c4.197,0,8.393,3.357,8.393,8.393l0,0c0,4.197-4.197,8.393-8.393,8.393l0,0
		C153.439,377.598,150.082,374.24,150.082,369.204z M150.082,337.309c0-5.036,3.357-8.393,8.393-8.393l0,0
		c4.197,0,8.393,3.357,8.393,8.393l0,0c0,5.036-4.197,8.393-8.393,8.393l0,0C153.439,345.703,150.082,341.506,150.082,337.309z
		 M150.082,304.575c0-5.036,3.357-8.393,8.393-8.393l0,0c4.197,0,8.393,3.357,8.393,8.393l0,0c0,4.197-4.197,8.393-8.393,8.393l0,0
		C153.439,312.968,150.082,308.771,150.082,304.575z M150.082,271.84c0-4.197,3.357-8.393,8.393-8.393l0,0
		c4.197,0,8.393,4.197,8.393,8.393l0,0c0,4.197-4.197,8.393-8.393,8.393l0,0C153.439,280.234,150.082,276.876,150.082,271.84z
		 M150.082,239.945c0-5.036,3.357-8.393,8.393-8.393l0,0c4.197,0,8.393,3.357,8.393,8.393l0,0c0,5.036-4.197,8.393-8.393,8.393l0,0
		C153.439,248.339,150.082,244.142,150.082,239.945z M150.082,207.211c0-5.036,3.357-8.393,8.393-8.393l0,0
		c4.197,0,8.393,3.357,8.393,8.393l0,0c0,5.036-4.197,8.393-8.393,8.393l0,0C153.439,215.604,150.082,212.247,150.082,207.211z
		 M150.082,174.476c0-4.197,3.357-8.393,8.393-8.393l0,0c4.197,0,8.393,4.197,8.393,8.393l0,0c0,5.036-4.197,8.393-8.393,8.393l0,0
		C153.439,182.87,150.082,179.512,150.082,174.476z M150.082,142.581c0-5.036,3.357-8.393,8.393-8.393l0,0
		c4.197,0,8.393,3.357,8.393,8.393l0,0c0,4.197-4.197,8.393-8.393,8.393l0,0C153.439,150.975,150.082,146.778,150.082,142.581z
		 M150.082,109.847c0-5.036,3.357-8.393,8.393-8.393l0,0c4.197,0,8.393,3.357,8.393,8.393l0,0c0,5.036-4.197,8.393-8.393,8.393l0,0
		C153.439,118.24,150.082,114.044,150.082,109.847z M150.082,77.112c0-5.036,3.357-8.393,8.393-8.393l0,0
		c4.197,0,8.393,3.357,8.393,8.393l0,0c0,4.197-4.197,8.393-8.393,8.393l0,0C153.439,85.506,150.082,82.148,150.082,77.112z
		 M150.082,45.217c0-4.197,3.357-8.393,8.393-8.393l0,0c4.197,0,8.393,4.197,8.393,8.393l0,0c0,4.197-4.197,8.393-8.393,8.393l0,0
		C153.439,53.611,150.082,49.414,150.082,45.217z"/>
	<path d="M304.521,12.483c0-5.036,4.197-8.393,8.393-8.393l0,0c5.036,0,8.393,3.357,8.393,8.393l0,0
		c0,4.197-3.357,8.393-8.393,8.393l0,0C308.718,20.876,304.521,16.68,304.521,12.483z M274.305,12.483
		c0-5.036,4.197-8.393,8.393-8.393l0,0c4.197,0,8.393,3.357,8.393,8.393l0,0c0,4.197-4.197,8.393-8.393,8.393l0,0
		C277.662,20.876,274.305,16.68,274.305,12.483z M243.249,12.483c0-5.036,3.357-8.393,8.393-8.393l0,0
		c5.036,0,8.393,3.357,8.393,8.393l0,0c0,4.197-3.357,8.393-8.393,8.393l0,0C246.607,20.876,243.249,16.68,243.249,12.483z
		 M212.193,12.483c0-5.036,3.357-8.393,8.393-8.393l0,0c4.197,0,8.393,3.357,8.393,8.393l0,0c0,4.197-4.197,8.393-8.393,8.393l0,0
		C215.551,20.876,212.193,16.68,212.193,12.483z M181.138,12.483c0-5.036,3.357-8.393,8.393-8.393l0,0
		c4.197,0,8.393,3.357,8.393,8.393l0,0c0,4.197-4.197,8.393-8.393,8.393l0,0C184.495,20.876,181.138,16.68,181.138,12.483z"/>
	<path d="M335.577,466.568c0-5.036,3.357-8.393,8.393-8.393l0,0c4.197,0,8.393,3.357,8.393,8.393l0,0
		c0,4.197-4.197,8.393-8.393,8.393l0,0C339.774,474.962,335.577,471.604,335.577,466.568z M335.577,434.673
		c0-4.197,3.357-8.393,8.393-8.393l0,0c4.197,0,8.393,4.197,8.393,8.393l0,0c0,4.197-4.197,8.393-8.393,8.393l0,0
		C339.774,443.066,335.577,438.87,335.577,434.673z M335.577,401.939c0-4.197,3.357-8.393,8.393-8.393l0,0
		c4.197,0,8.393,4.197,8.393,8.393l0,0c0,5.036-4.197,8.393-8.393,8.393l0,0C339.774,410.332,335.577,406.975,335.577,401.939z
		 M335.577,369.204c0-5.036,3.357-8.393,8.393-8.393l0,0c4.197,0,8.393,3.357,8.393,8.393l0,0c0,5.036-4.197,8.393-8.393,8.393l0,0
		C339.774,377.598,335.577,374.24,335.577,369.204z M335.577,337.309c0-5.036,3.357-8.393,8.393-8.393l0,0
		c4.197,0,8.393,3.357,8.393,8.393l0,0c0,4.197-4.197,8.393-8.393,8.393l0,0C339.774,345.703,335.577,341.506,335.577,337.309z
		 M335.577,304.575c0-4.197,3.357-8.393,8.393-8.393l0,0c4.197,0,8.393,4.197,8.393,8.393l0,0c0,4.197-4.197,8.393-8.393,8.393l0,0
		C339.774,312.968,335.577,308.771,335.577,304.575z M335.577,271.84c0-5.036,3.357-8.393,8.393-8.393l0,0
		c4.197,0,8.393,3.357,8.393,8.393l0,0c0,5.036-4.197,8.393-8.393,8.393l0,0C339.774,280.234,335.577,276.876,335.577,271.84z
		 M335.577,239.945c0-4.197,3.357-8.393,8.393-8.393l0,0c4.197,0,8.393,4.197,8.393,8.393l0,0c0,4.197-4.197,8.393-8.393,8.393l0,0
		C339.774,248.339,335.577,244.142,335.577,239.945z M335.577,207.211c0-4.197,3.357-8.393,8.393-8.393l0,0
		c4.197,0,8.393,4.197,8.393,8.393l0,0c0,5.036-4.197,8.393-8.393,8.393l0,0C339.774,215.604,335.577,212.247,335.577,207.211z
		 M335.577,174.476c0-4.197,3.357-8.393,8.393-8.393l0,0c4.197,0,8.393,4.197,8.393,8.393l0,0c0,5.036-4.197,8.393-8.393,8.393l0,0
		C339.774,182.87,335.577,179.512,335.577,174.476z M335.577,142.581c0-5.036,3.357-8.393,8.393-8.393l0,0
		c4.197,0,8.393,3.357,8.393,8.393l0,0c0,5.036-4.197,8.393-8.393,8.393l0,0C339.774,150.975,335.577,146.778,335.577,142.581z
		 M335.577,109.847c0-4.197,3.357-8.393,8.393-8.393l0,0c4.197,0,8.393,4.197,8.393,8.393l0,0c0,5.036-4.197,8.393-8.393,8.393l0,0
		C339.774,118.24,335.577,114.044,335.577,109.847z M335.577,77.112c0-5.036,3.357-8.393,8.393-8.393l0,0
		c4.197,0,8.393,3.357,8.393,8.393l0,0c0,5.036-4.197,8.393-8.393,8.393l0,0C339.774,85.506,335.577,82.148,335.577,77.112z
		 M335.577,45.217c0-5.036,3.357-8.393,8.393-8.393l0,0c4.197,0,8.393,3.357,8.393,8.393l0,0c0,5.036-4.197,8.393-8.393,8.393l0,0
		C339.774,53.611,335.577,49.414,335.577,45.217z"/>
	<path d="M304.521,499.303c0-4.197,3.357-8.393,8.393-8.393l0,0c5.036,0,8.393,4.197,8.393,8.393l0,0
		c0,4.197-3.357,8.393-8.393,8.393l0,0C308.718,507.696,304.521,503.499,304.521,499.303z M274.305,499.303
		c0-4.197,4.197-8.393,8.393-8.393l0,0c4.197,0,8.393,4.197,8.393,8.393l0,0c0,4.197-4.197,8.393-8.393,8.393l0,0
		C277.662,507.696,274.305,503.499,274.305,499.303z M243.249,499.303c0-4.197,3.357-8.393,8.393-8.393l0,0
		c4.197,0,8.393,4.197,8.393,8.393l0,0c0,4.197-3.357,8.393-8.393,8.393l0,0C246.607,507.696,243.249,503.499,243.249,499.303z
		 M212.193,499.303c0-4.197,4.197-8.393,8.393-8.393l0,0c5.036,0,8.393,4.197,8.393,8.393l0,0c0,4.197-3.357,8.393-8.393,8.393l0,0
		C215.551,507.696,212.193,503.499,212.193,499.303z M181.138,499.303c0-4.197,4.197-8.393,8.393-8.393l0,0
		c4.197,0,8.393,4.197,8.393,8.393l0,0c0,4.197-3.357,8.393-8.393,8.393l0,0C184.495,507.696,181.138,503.499,181.138,499.303z"/>
	<path d="M141.689,356.614H-1V155.171h142.689c5.036,0,8.393,3.357,8.393,8.393s-3.357,8.393-8.393,8.393H15.787v167.869h125.902
		c5.036,0,8.393,3.357,8.393,8.393S146.725,356.614,141.689,356.614z"/>
	<path d="M502.607,356.614H359.918c-5.036,0-8.393-3.357-8.393-8.393s3.357-8.393,8.393-8.393H485.82V171.958H359.918
		c-5.036,0-8.393-3.357-8.393-8.393s3.357-8.393,8.393-8.393h142.689V356.614z"/>
	<path d="M49.361,146.778c-2.518,0-5.036-0.839-6.715-3.357c-2.518-3.357-1.679-9.233,1.679-11.751l33.574-25.18
		c3.357-2.518,9.233-1.679,11.751,1.679c2.518,3.357,1.679,9.233-1.679,11.751l-33.574,25.18
		C52.718,145.939,51.039,146.778,49.361,146.778z"/>
	<path d="M49.361,146.778c-1.679,0-3.357-0.839-5.036-1.679l-33.574-25.18c-3.357-2.518-4.197-8.393-1.679-11.751
		c2.518-3.357,8.393-4.197,11.751-1.679l20.144,15.108c0-64.63,52.879-117.508,117.508-117.508c5.036,0,8.393,3.357,8.393,8.393
		s-3.357,8.393-8.393,8.393c-55.397,0-100.721,45.325-100.721,100.721v16.787c0,3.357-1.679,5.875-5.036,7.554
		C51.879,146.778,51.039,146.778,49.361,146.778z"/>
	<path d="M427.066,406.975c-2.518,0-5.036-0.839-6.715-3.357c-2.518-3.357-1.679-9.233,1.679-11.751l33.574-25.18
		c3.357-2.518,9.233-1.679,11.751,1.679c2.518,3.357,1.679,9.233-1.679,11.751l-33.574,25.18
		C430.423,406.135,428.744,406.975,427.066,406.975z"/>
	<path d="M351.525,507.696c-5.036,0-8.393-3.357-8.393-8.393c0-5.036,3.357-8.393,8.393-8.393
		c55.397,0,100.721-45.325,100.721-100.721v-16.787c0-3.357,1.679-5.875,5.036-7.554c2.518-1.679,5.875-0.839,8.393,0.839
		l33.574,25.18c3.357,2.518,4.197,8.393,1.679,11.751c-2.518,3.357-8.393,4.197-11.751,1.679l-20.144-15.108
		C469.033,454.817,416.154,507.696,351.525,507.696z"/>
</g>
</svg>