<svg width="167" height="118" viewBox="0 0 167 118" fill="none" xmlns="http://www.w3.org/2000/svg">
<path d="M0.538844 19L4.60684 7.12H8.38684L12.4548 19H9.64684L6.64084 9.172H6.37084L3.34684 19H0.538844ZM2.82484 16.66V14.896H10.5468V16.66H2.82484ZM13.936 19V6.13H16.492V19H13.936ZM22.6555 19.252C22.0195 19.252 21.4435 19.192 20.9275 19.072C20.4115 18.952 19.9675 18.778 19.5955 18.55C19.2235 18.322 18.9235 18.052 18.6955 17.74C18.4675 17.416 18.3175 17.056 18.2455 16.66L20.2255 15.85C20.2735 16.114 20.4055 16.36 20.6215 16.588C20.8375 16.816 21.1255 17.002 21.4855 17.146C21.8575 17.278 22.3015 17.344 22.8175 17.344C23.3695 17.344 23.7955 17.266 24.0955 17.11C24.3955 16.942 24.5455 16.708 24.5455 16.408C24.5455 16.18 24.4615 16 24.2935 15.868C24.1255 15.736 23.8795 15.622 23.5555 15.526C23.2315 15.43 22.8415 15.34 22.3855 15.256C21.9415 15.148 21.4855 15.034 21.0175 14.914C20.5615 14.794 20.1355 14.626 19.7395 14.41C19.3555 14.194 19.0375 13.912 18.7855 13.564C18.5455 13.204 18.4255 12.748 18.4255 12.196C18.4255 11.62 18.5815 11.116 18.8935 10.684C19.2055 10.252 19.6615 9.916 20.2615 9.676C20.8615 9.424 21.5935 9.298 22.4575 9.298C23.2375 9.298 23.9215 9.406 24.5095 9.622C25.0975 9.826 25.5775 10.126 25.9495 10.522C26.3335 10.906 26.5915 11.368 26.7235 11.908L24.6175 12.61C24.5695 12.322 24.4495 12.07 24.2575 11.854C24.0775 11.638 23.8315 11.476 23.5195 11.368C23.2195 11.26 22.8655 11.206 22.4575 11.206C21.9415 11.206 21.5395 11.29 21.2515 11.458C20.9755 11.626 20.8375 11.848 20.8375 12.124C20.8375 12.352 20.9275 12.538 21.1075 12.682C21.2995 12.826 21.5635 12.946 21.8995 13.042C22.2355 13.126 22.6315 13.216 23.0875 13.312C23.5675 13.408 24.0355 13.522 24.4915 13.654C24.9475 13.774 25.3555 13.936 25.7155 14.14C26.0875 14.344 26.3815 14.614 26.5975 14.95C26.8135 15.286 26.9215 15.718 26.9215 16.246C26.9215 16.87 26.7535 17.41 26.4175 17.866C26.0815 18.31 25.5955 18.652 24.9595 18.892C24.3235 19.132 23.5555 19.252 22.6555 19.252ZM33.0736 19.252C32.1256 19.252 31.2916 19.066 30.5716 18.694C29.8516 18.31 29.2876 17.752 28.8796 17.02C28.4716 16.276 28.2676 15.352 28.2676 14.248C28.2676 13.144 28.4716 12.226 28.8796 11.494C29.2996 10.762 29.8696 10.216 30.5896 9.856C31.3216 9.484 32.1496 9.298 33.0736 9.298C34.0216 9.298 34.8556 9.484 35.5756 9.856C36.3076 10.228 36.8776 10.786 37.2856 11.53C37.7056 12.262 37.9156 13.18 37.9156 14.284C37.9156 15.4 37.6996 16.33 37.2676 17.074C36.8476 17.806 36.2716 18.352 35.5396 18.712C34.8196 19.072 33.9976 19.252 33.0736 19.252ZM33.1636 17.326C33.6316 17.326 34.0216 17.218 34.3336 17.002C34.6576 16.786 34.8976 16.462 35.0536 16.03C35.2216 15.586 35.3056 15.052 35.3056 14.428C35.3056 13.768 35.2156 13.21 35.0356 12.754C34.8676 12.286 34.6156 11.932 34.2796 11.692C33.9436 11.44 33.5176 11.314 33.0016 11.314C32.5576 11.314 32.1736 11.422 31.8496 11.638C31.5256 11.842 31.2796 12.166 31.1116 12.61C30.9436 13.042 30.8596 13.576 30.8596 14.212C30.8596 15.232 31.0636 16.006 31.4716 16.534C31.8796 17.062 32.4436 17.326 33.1636 17.326ZM38.5017 21.376C38.7177 20.824 38.8677 20.308 38.9517 19.828C39.0477 19.348 39.1017 18.868 39.1137 18.388C39.1377 17.896 39.1497 17.362 39.1497 16.786H41.5257C41.5257 17.602 41.4777 18.304 41.3817 18.892C41.2857 19.468 41.1537 19.954 40.9857 20.35C40.8297 20.758 40.6677 21.1 40.4997 21.376H38.5017ZM47.4253 19V7.12H50.0713V19H47.4253ZM52.1048 10.684L51.7988 6.13H54.1748L53.8508 10.684H52.1048ZM55.6138 19V12.952V9.55H57.6838V12.376H58.0258C58.1938 11.68 58.4158 11.11 58.6918 10.666C58.9678 10.21 59.2978 9.868 59.6818 9.64C60.0778 9.412 60.5398 9.298 61.0678 9.298C61.6318 9.298 62.0998 9.424 62.4718 9.676C62.8438 9.928 63.1318 10.282 63.3358 10.738C63.5398 11.182 63.6718 11.728 63.7318 12.376H64.0198C64.1998 11.668 64.4398 11.086 64.7398 10.63C65.0518 10.174 65.4178 9.838 65.8378 9.622C66.2698 9.406 66.7438 9.298 67.2598 9.298C67.7758 9.298 68.2258 9.4 68.6098 9.604C69.0058 9.808 69.3358 10.114 69.5998 10.522C69.8638 10.918 70.0618 11.422 70.1938 12.034C70.3258 12.634 70.3918 13.33 70.3918 14.122V19H67.7998V14.446C67.7998 13.798 67.7458 13.258 67.6378 12.826C67.5298 12.382 67.3618 12.052 67.1338 11.836C66.9058 11.62 66.6118 11.512 66.2518 11.512C65.8558 11.512 65.5138 11.65 65.2258 11.926C64.9378 12.19 64.7098 12.556 64.5418 13.024C64.3738 13.492 64.2838 14.026 64.2718 14.626V19H61.7338V14.518C61.7338 13.846 61.6738 13.294 61.5538 12.862C61.4338 12.418 61.2598 12.082 61.0318 11.854C60.8038 11.626 60.5158 11.512 60.1678 11.512C59.7598 11.512 59.4118 11.65 59.1238 11.926C58.8358 12.19 58.6138 12.562 58.4578 13.042C58.3018 13.522 58.2178 14.056 58.2058 14.644V19H55.6138ZM76.7954 19V9.55H79.3874V19H76.7954ZM78.1094 8.128C77.6054 8.128 77.2154 8.026 76.9394 7.822C76.6754 7.606 76.5434 7.294 76.5434 6.886C76.5434 6.466 76.6754 6.148 76.9394 5.932C77.2154 5.716 77.6054 5.608 78.1094 5.608C78.6254 5.608 79.0154 5.716 79.2794 5.932C79.5554 6.148 79.6934 6.466 79.6934 6.886C79.6934 7.282 79.5554 7.588 79.2794 7.804C79.0154 8.02 78.6254 8.128 78.1094 8.128ZM81.7876 19V13.276V9.55H83.9116L83.8936 12.376H84.2536C84.4096 11.692 84.6316 11.122 84.9196 10.666C85.2076 10.21 85.5676 9.868 85.9996 9.64C86.4436 9.412 86.9656 9.298 87.5656 9.298C88.6576 9.298 89.4856 9.682 90.0496 10.45C90.6256 11.218 90.9136 12.424 90.9136 14.068V19H88.3036V14.356C88.3036 13.348 88.1536 12.616 87.8536 12.16C87.5656 11.692 87.1396 11.458 86.5756 11.458C86.0956 11.458 85.6936 11.608 85.3696 11.908C85.0456 12.208 84.7996 12.604 84.6316 13.096C84.4756 13.576 84.3916 14.116 84.3796 14.716V19H81.7876ZM96.6179 19.216C95.5619 19.216 94.7819 18.94 94.2779 18.388C93.7859 17.824 93.5399 16.93 93.5399 15.706V11.584H92.1719L92.2079 9.55H93.1619C93.5339 9.55 93.8099 9.496 93.9899 9.388C94.1699 9.28 94.2779 9.082 94.3139 8.794L94.5479 7.444H96.0239V9.55H98.4179V11.656H96.0239V15.598C96.0239 16.03 96.1259 16.342 96.3299 16.534C96.5339 16.726 96.8459 16.822 97.2659 16.822C97.4939 16.822 97.7099 16.798 97.9139 16.75C98.1299 16.702 98.3159 16.624 98.4719 16.516V18.928C98.0999 19.048 97.7579 19.126 97.4459 19.162C97.1339 19.198 96.8579 19.216 96.6179 19.216ZM104.601 19.252C103.821 19.252 103.125 19.144 102.513 18.928C101.913 18.712 101.403 18.4 100.983 17.992C100.563 17.584 100.239 17.08 100.011 16.48C99.7955 15.88 99.6875 15.202 99.6875 14.446C99.6875 13.702 99.7895 13.018 99.9935 12.394C100.209 11.758 100.521 11.212 100.929 10.756C101.337 10.288 101.835 9.928 102.423 9.676C103.011 9.424 103.677 9.298 104.421 9.298C105.141 9.298 105.783 9.418 106.347 9.658C106.911 9.886 107.379 10.234 107.751 10.702C108.135 11.17 108.411 11.746 108.579 12.43C108.759 13.102 108.825 13.876 108.777 14.752L101.361 14.824V13.402L107.283 13.348L106.365 14.068C106.449 13.432 106.407 12.91 106.239 12.502C106.071 12.094 105.825 11.794 105.501 11.602C105.189 11.41 104.841 11.314 104.457 11.314C104.001 11.314 103.599 11.434 103.251 11.674C102.903 11.914 102.633 12.268 102.441 12.736C102.249 13.192 102.153 13.744 102.153 14.392C102.153 15.412 102.375 16.162 102.819 16.642C103.275 17.122 103.869 17.362 104.601 17.362C104.937 17.362 105.219 17.32 105.447 17.236C105.687 17.14 105.879 17.02 106.023 16.876C106.179 16.732 106.299 16.57 106.383 16.39C106.479 16.21 106.557 16.03 106.617 15.85L108.867 16.336C108.759 16.78 108.597 17.182 108.381 17.542C108.177 17.89 107.901 18.196 107.553 18.46C107.205 18.712 106.785 18.904 106.293 19.036C105.813 19.18 105.249 19.252 104.601 19.252ZM110.668 19V14.428V9.55H112.81L112.828 12.772H113.17C113.266 11.968 113.428 11.314 113.656 10.81C113.896 10.306 114.226 9.934 114.646 9.694C115.066 9.454 115.588 9.334 116.212 9.334C116.32 9.334 116.434 9.34 116.554 9.352C116.686 9.352 116.836 9.37 117.004 9.406L116.896 12.16C116.716 12.076 116.518 12.016 116.302 11.98C116.086 11.944 115.894 11.926 115.726 11.926C115.258 11.926 114.856 12.034 114.52 12.25C114.184 12.466 113.908 12.778 113.692 13.186C113.488 13.582 113.35 14.068 113.278 14.644V19H110.668ZM122.83 19.252C122.05 19.252 121.354 19.144 120.742 18.928C120.142 18.712 119.632 18.4 119.212 17.992C118.792 17.584 118.468 17.08 118.24 16.48C118.024 15.88 117.916 15.202 117.916 14.446C117.916 13.702 118.018 13.018 118.222 12.394C118.438 11.758 118.75 11.212 119.158 10.756C119.566 10.288 120.064 9.928 120.652 9.676C121.24 9.424 121.906 9.298 122.65 9.298C123.37 9.298 124.012 9.418 124.576 9.658C125.14 9.886 125.608 10.234 125.98 10.702C126.364 11.17 126.64 11.746 126.808 12.43C126.988 13.102 127.054 13.876 127.006 14.752L119.59 14.824V13.402L125.512 13.348L124.594 14.068C124.678 13.432 124.636 12.91 124.468 12.502C124.3 12.094 124.054 11.794 123.73 11.602C123.418 11.41 123.07 11.314 122.686 11.314C122.23 11.314 121.828 11.434 121.48 11.674C121.132 11.914 120.862 12.268 120.67 12.736C120.478 13.192 120.382 13.744 120.382 14.392C120.382 15.412 120.604 16.162 121.048 16.642C121.504 17.122 122.098 17.362 122.83 17.362C123.166 17.362 123.448 17.32 123.676 17.236C123.916 17.14 124.108 17.02 124.252 16.876C124.408 16.732 124.528 16.57 124.612 16.39C124.708 16.21 124.786 16.03 124.846 15.85L127.096 16.336C126.988 16.78 126.826 17.182 126.61 17.542C126.406 17.89 126.13 18.196 125.782 18.46C125.434 18.712 125.014 18.904 124.522 19.036C124.042 19.18 123.478 19.252 122.83 19.252ZM132.782 19.252C132.146 19.252 131.57 19.192 131.054 19.072C130.538 18.952 130.094 18.778 129.722 18.55C129.35 18.322 129.05 18.052 128.822 17.74C128.594 17.416 128.444 17.056 128.372 16.66L130.352 15.85C130.4 16.114 130.532 16.36 130.748 16.588C130.964 16.816 131.252 17.002 131.612 17.146C131.984 17.278 132.428 17.344 132.944 17.344C133.496 17.344 133.922 17.266 134.222 17.11C134.522 16.942 134.672 16.708 134.672 16.408C134.672 16.18 134.588 16 134.42 15.868C134.252 15.736 134.006 15.622 133.682 15.526C133.358 15.43 132.968 15.34 132.512 15.256C132.068 15.148 131.612 15.034 131.144 14.914C130.688 14.794 130.262 14.626 129.866 14.41C129.482 14.194 129.164 13.912 128.912 13.564C128.672 13.204 128.552 12.748 128.552 12.196C128.552 11.62 128.708 11.116 129.02 10.684C129.332 10.252 129.788 9.916 130.388 9.676C130.988 9.424 131.72 9.298 132.584 9.298C133.364 9.298 134.048 9.406 134.636 9.622C135.224 9.826 135.704 10.126 136.076 10.522C136.46 10.906 136.718 11.368 136.85 11.908L134.744 12.61C134.696 12.322 134.576 12.07 134.384 11.854C134.204 11.638 133.958 11.476 133.646 11.368C133.346 11.26 132.992 11.206 132.584 11.206C132.068 11.206 131.666 11.29 131.378 11.458C131.102 11.626 130.964 11.848 130.964 12.124C130.964 12.352 131.054 12.538 131.234 12.682C131.426 12.826 131.69 12.946 132.026 13.042C132.362 13.126 132.758 13.216 133.214 13.312C133.694 13.408 134.162 13.522 134.618 13.654C135.074 13.774 135.482 13.936 135.842 14.14C136.214 14.344 136.508 14.614 136.724 14.95C136.94 15.286 137.048 15.718 137.048 16.246C137.048 16.87 136.88 17.41 136.544 17.866C136.208 18.31 135.722 18.652 135.086 18.892C134.45 19.132 133.682 19.252 132.782 19.252ZM142.303 19.216C141.247 19.216 140.467 18.94 139.963 18.388C139.471 17.824 139.225 16.93 139.225 15.706V11.584H137.857L137.893 9.55H138.847C139.219 9.55 139.495 9.496 139.675 9.388C139.855 9.28 139.963 9.082 139.999 8.794L140.233 7.444H141.709V9.55H144.103V11.656H141.709V15.598C141.709 16.03 141.811 16.342 142.015 16.534C142.219 16.726 142.531 16.822 142.951 16.822C143.179 16.822 143.395 16.798 143.599 16.75C143.815 16.702 144.001 16.624 144.157 16.516V18.928C143.785 19.048 143.443 19.126 143.131 19.162C142.819 19.198 142.543 19.216 142.303 19.216ZM150.287 19.252C149.507 19.252 148.811 19.144 148.199 18.928C147.599 18.712 147.089 18.4 146.669 17.992C146.249 17.584 145.925 17.08 145.697 16.48C145.481 15.88 145.373 15.202 145.373 14.446C145.373 13.702 145.475 13.018 145.679 12.394C145.895 11.758 146.207 11.212 146.615 10.756C147.023 10.288 147.521 9.928 148.109 9.676C148.697 9.424 149.363 9.298 150.107 9.298C150.827 9.298 151.469 9.418 152.033 9.658C152.597 9.886 153.065 10.234 153.437 10.702C153.821 11.17 154.097 11.746 154.265 12.43C154.445 13.102 154.511 13.876 154.463 14.752L147.047 14.824V13.402L152.969 13.348L152.051 14.068C152.135 13.432 152.093 12.91 151.925 12.502C151.757 12.094 151.511 11.794 151.187 11.602C150.875 11.41 150.527 11.314 150.143 11.314C149.687 11.314 149.285 11.434 148.937 11.674C148.589 11.914 148.319 12.268 148.127 12.736C147.935 13.192 147.839 13.744 147.839 14.392C147.839 15.412 148.061 16.162 148.505 16.642C148.961 17.122 149.555 17.362 150.287 17.362C150.623 17.362 150.905 17.32 151.133 17.236C151.373 17.14 151.565 17.02 151.709 16.876C151.865 16.732 151.985 16.57 152.069 16.39C152.165 16.21 152.243 16.03 152.303 15.85L154.553 16.336C154.445 16.78 154.283 17.182 154.067 17.542C153.863 17.89 153.587 18.196 153.239 18.46C152.891 18.712 152.471 18.904 151.979 19.036C151.499 19.18 150.935 19.252 150.287 19.252ZM159.915 19.252C159.123 19.252 158.427 19.048 157.827 18.64C157.239 18.232 156.783 17.656 156.459 16.912C156.135 16.168 155.973 15.286 155.973 14.266C155.973 13.306 156.117 12.454 156.405 11.71C156.693 10.966 157.119 10.384 157.683 9.964C158.247 9.544 158.949 9.334 159.789 9.334C160.401 9.334 160.917 9.448 161.337 9.676C161.757 9.904 162.099 10.24 162.363 10.684C162.639 11.116 162.855 11.638 163.011 12.25H163.425C163.341 11.866 163.263 11.494 163.191 11.134C163.131 10.762 163.083 10.408 163.047 10.072C163.011 9.736 162.993 9.442 162.993 9.19V6.13H165.585V14.356V19H163.425V16.264H163.065C162.933 16.936 162.729 17.494 162.453 17.938C162.177 18.382 161.823 18.712 161.391 18.928C160.971 19.144 160.479 19.252 159.915 19.252ZM160.779 17.128C161.175 17.128 161.511 17.044 161.787 16.876C162.063 16.708 162.291 16.492 162.471 16.228C162.651 15.952 162.783 15.658 162.867 15.346C162.951 15.022 162.993 14.722 162.993 14.446V14.104C162.993 13.876 162.957 13.642 162.885 13.402C162.825 13.15 162.735 12.904 162.615 12.664C162.495 12.424 162.345 12.214 162.165 12.034C161.985 11.842 161.775 11.692 161.535 11.584C161.295 11.476 161.031 11.422 160.743 11.422C160.311 11.422 159.945 11.542 159.645 11.782C159.345 12.022 159.111 12.358 158.943 12.79C158.775 13.21 158.691 13.702 158.691 14.266C158.691 14.842 158.775 15.346 158.943 15.778C159.123 16.21 159.369 16.546 159.681 16.786C159.993 17.014 160.359 17.128 160.779 17.128ZM26.021 41V31.55H28.613V41H26.021ZM27.335 30.128C26.831 30.128 26.441 30.026 26.165 29.822C25.901 29.606 25.769 29.294 25.769 28.886C25.769 28.466 25.901 28.148 26.165 27.932C26.441 27.716 26.831 27.608 27.335 27.608C27.851 27.608 28.241 27.716 28.505 27.932C28.781 28.148 28.919 28.466 28.919 28.886C28.919 29.282 28.781 29.588 28.505 29.804C28.241 30.02 27.851 30.128 27.335 30.128ZM31.0132 41V35.276V31.55H33.1372L33.1192 34.376H33.4792C33.6352 33.692 33.8572 33.122 34.1452 32.666C34.4332 32.21 34.7932 31.868 35.2252 31.64C35.6692 31.412 36.1912 31.298 36.7912 31.298C37.8832 31.298 38.7112 31.682 39.2752 32.45C39.8512 33.218 40.1392 34.424 40.1392 36.068V41H37.5292V36.356C37.5292 35.348 37.3792 34.616 37.0792 34.16C36.7912 33.692 36.3652 33.458 35.8012 33.458C35.3212 33.458 34.9192 33.608 34.5952 33.908C34.2712 34.208 34.0252 34.604 33.8572 35.096C33.7012 35.576 33.6172 36.116 33.6052 36.716V41H31.0132ZM49.9551 41.252C49.1631 41.252 48.4671 41.048 47.8671 40.64C47.2791 40.232 46.8231 39.656 46.4991 38.912C46.1751 38.168 46.0131 37.286 46.0131 36.266C46.0131 35.306 46.1571 34.454 46.4451 33.71C46.7331 32.966 47.1591 32.384 47.7231 31.964C48.2871 31.544 48.9891 31.334 49.8291 31.334C50.4411 31.334 50.9571 31.448 51.3771 31.676C51.7971 31.904 52.1391 32.24 52.4031 32.684C52.6791 33.116 52.8951 33.638 53.0511 34.25H53.4651C53.3811 33.866 53.3031 33.494 53.2311 33.134C53.1711 32.762 53.1231 32.408 53.0871 32.072C53.0511 31.736 53.0331 31.442 53.0331 31.19V28.13H55.6251V36.356V41H53.4651V38.264H53.1051C52.9731 38.936 52.7691 39.494 52.4931 39.938C52.2171 40.382 51.8631 40.712 51.4311 40.928C51.0111 41.144 50.5191 41.252 49.9551 41.252ZM50.8191 39.128C51.2151 39.128 51.5511 39.044 51.8271 38.876C52.1031 38.708 52.3311 38.492 52.5111 38.228C52.6911 37.952 52.8231 37.658 52.9071 37.346C52.9911 37.022 53.0331 36.722 53.0331 36.446V36.104C53.0331 35.876 52.9971 35.642 52.9251 35.402C52.8651 35.15 52.7751 34.904 52.6551 34.664C52.5351 34.424 52.3851 34.214 52.2051 34.034C52.0251 33.842 51.8151 33.692 51.5751 33.584C51.3351 33.476 51.0711 33.422 50.7831 33.422C50.3511 33.422 49.9851 33.542 49.6851 33.782C49.3851 34.022 49.1511 34.358 48.9831 34.79C48.8151 35.21 48.7311 35.702 48.7311 36.266C48.7311 36.842 48.8151 37.346 48.9831 37.778C49.1631 38.21 49.4091 38.546 49.7211 38.786C50.0331 39.014 50.3991 39.128 50.8191 39.128ZM58.0132 41V31.55H60.6052V41H58.0132ZM59.3272 30.128C58.8232 30.128 58.4332 30.026 58.1572 29.822C57.8932 29.606 57.7612 29.294 57.7612 28.886C57.7612 28.466 57.8932 28.148 58.1572 27.932C58.4332 27.716 58.8232 27.608 59.3272 27.608C59.8432 27.608 60.2332 27.716 60.4972 27.932C60.7732 28.148 60.9112 28.466 60.9112 28.886C60.9112 29.282 60.7732 29.588 60.4972 29.804C60.2332 30.02 59.8432 30.128 59.3272 30.128ZM65.1654 41L62.0154 31.568H64.8774L66.8754 38.948H67.1634L69.1614 31.568H71.9154L68.7474 41H65.1654ZM73.3062 41V31.55H75.8982V41H73.3062ZM74.6202 30.128C74.1162 30.128 73.7262 30.026 73.4502 29.822C73.1862 29.606 73.0542 29.294 73.0542 28.886C73.0542 28.466 73.1862 28.148 73.4502 27.932C73.7262 27.716 74.1162 27.608 74.6202 27.608C75.1362 27.608 75.5262 27.716 75.7902 27.932C76.0662 28.148 76.2042 28.466 76.2042 28.886C76.2042 29.282 76.0662 29.588 75.7902 29.804C75.5262 30.02 75.1362 30.128 74.6202 30.128ZM78.2984 41V35.276V31.55H80.4224L80.4044 34.376H80.7644C80.9204 33.692 81.1424 33.122 81.4304 32.666C81.7184 32.21 82.0784 31.868 82.5104 31.64C82.9544 31.412 83.4764 31.298 84.0764 31.298C85.1684 31.298 85.9964 31.682 86.5604 32.45C87.1364 33.218 87.4244 34.424 87.4244 36.068V41H84.8144V36.356C84.8144 35.348 84.6644 34.616 84.3644 34.16C84.0764 33.692 83.6504 33.458 83.0864 33.458C82.6064 33.458 82.2044 33.608 81.8804 33.908C81.5564 34.208 81.3104 34.604 81.1424 35.096C80.9864 35.576 80.9024 36.116 80.8904 36.716V41H78.2984ZM93.3978 44.294C92.3658 44.294 91.5138 44.21 90.8418 44.042C90.1818 43.886 89.6958 43.652 89.3838 43.34C89.0718 43.028 88.9158 42.638 88.9158 42.17C88.9158 41.618 89.1318 41.168 89.5638 40.82C90.0078 40.472 90.6558 40.262 91.5078 40.19V39.83C90.8598 39.83 90.3618 39.764 90.0138 39.632C89.6658 39.488 89.4918 39.242 89.4918 38.894C89.4918 38.558 89.6598 38.258 89.9958 37.994C90.3438 37.73 90.9138 37.52 91.7058 37.364V37.004C90.9618 36.956 90.3798 36.716 89.9598 36.284C89.5398 35.852 89.3298 35.294 89.3298 34.61C89.3298 34.01 89.4978 33.476 89.8338 33.008C90.1698 32.528 90.6678 32.15 91.3278 31.874C91.9998 31.586 92.8218 31.442 93.7938 31.442H98.5818V33.422L95.6118 33.008V33.422C96.3798 33.53 96.9318 33.722 97.2678 33.998C97.6158 34.274 97.7898 34.658 97.7898 35.15C97.7898 35.642 97.6278 36.074 97.3038 36.446C96.9798 36.818 96.5178 37.112 95.9178 37.328C95.3298 37.532 94.6218 37.634 93.7938 37.634C93.6378 37.634 93.4698 37.628 93.2898 37.616C93.1098 37.604 92.8098 37.574 92.3898 37.526C92.1618 37.694 91.9818 37.844 91.8498 37.976C91.7298 38.096 91.6698 38.21 91.6698 38.318C91.6698 38.402 91.7118 38.474 91.7958 38.534C91.8918 38.594 92.0118 38.636 92.1558 38.66C92.3118 38.684 92.4678 38.696 92.6238 38.696H95.3238C95.5638 38.696 95.8758 38.714 96.2598 38.75C96.6438 38.774 97.0278 38.864 97.4118 39.02C97.7958 39.176 98.1198 39.428 98.3838 39.776C98.6478 40.112 98.7798 40.598 98.7798 41.234C98.7798 41.93 98.5818 42.506 98.1858 42.962C97.8018 43.418 97.2078 43.754 96.4038 43.97C95.6118 44.186 94.6098 44.294 93.3978 44.294ZM93.6858 42.224C94.4178 42.224 94.9878 42.182 95.3958 42.098C95.8038 42.026 96.0918 41.9 96.2598 41.72C96.4398 41.552 96.5298 41.336 96.5298 41.072C96.5298 40.832 96.4758 40.646 96.3678 40.514C96.2718 40.382 96.1398 40.292 95.9718 40.244C95.8158 40.184 95.6538 40.148 95.4858 40.136C95.3298 40.112 95.1918 40.1 95.0718 40.1H92.8038C92.2998 40.148 91.9338 40.286 91.7058 40.514C91.4898 40.73 91.3818 40.982 91.3818 41.27C91.3818 41.534 91.4658 41.732 91.6338 41.864C91.8018 41.996 92.0538 42.086 92.3898 42.134C92.7378 42.194 93.1698 42.224 93.6858 42.224ZM93.6498 36.284C94.2258 36.284 94.6578 36.146 94.9458 35.87C95.2338 35.582 95.3778 35.21 95.3778 34.754C95.3778 34.274 95.2278 33.878 94.9278 33.566C94.6398 33.254 94.2138 33.098 93.6498 33.098C93.0978 33.098 92.6658 33.254 92.3538 33.566C92.0418 33.866 91.8858 34.256 91.8858 34.736C91.8858 35.036 91.9518 35.306 92.0838 35.546C92.2278 35.774 92.4318 35.954 92.6958 36.086C92.9598 36.218 93.2778 36.284 93.6498 36.284ZM104.613 41V31.55H107.205V41H104.613ZM105.927 30.128C105.423 30.128 105.033 30.026 104.757 29.822C104.493 29.606 104.361 29.294 104.361 28.886C104.361 28.466 104.493 28.148 104.757 27.932C105.033 27.716 105.423 27.608 105.927 27.608C106.443 27.608 106.833 27.716 107.097 27.932C107.373 28.148 107.511 28.466 107.511 28.886C107.511 29.282 107.373 29.588 107.097 29.804C106.833 30.02 106.443 30.128 105.927 30.128ZM109.605 41V35.276V31.55H111.729L111.711 34.376H112.071C112.227 33.692 112.449 33.122 112.737 32.666C113.025 32.21 113.385 31.868 113.817 31.64C114.261 31.412 114.783 31.298 115.383 31.298C116.475 31.298 117.303 31.682 117.867 32.45C118.443 33.218 118.731 34.424 118.731 36.068V41H116.121V36.356C116.121 35.348 115.971 34.616 115.671 34.16C115.383 33.692 114.957 33.458 114.393 33.458C113.913 33.458 113.511 33.608 113.187 33.908C112.863 34.208 112.617 34.604 112.449 35.096C112.293 35.576 112.209 36.116 112.197 36.716V41H109.605ZM124.435 41.216C123.379 41.216 122.599 40.94 122.095 40.388C121.603 39.824 121.357 38.93 121.357 37.706V33.584H119.989L120.025 31.55H120.979C121.351 31.55 121.627 31.496 121.807 31.388C121.987 31.28 122.095 31.082 122.131 30.794L122.365 29.444H123.841V31.55H126.235V33.656H123.841V37.598C123.841 38.03 123.943 38.342 124.147 38.534C124.351 38.726 124.663 38.822 125.083 38.822C125.311 38.822 125.527 38.798 125.731 38.75C125.947 38.702 126.133 38.624 126.289 38.516V40.928C125.917 41.048 125.575 41.126 125.263 41.162C124.951 41.198 124.675 41.216 124.435 41.216ZM132.293 41.252C131.345 41.252 130.511 41.066 129.791 40.694C129.071 40.31 128.507 39.752 128.099 39.02C127.691 38.276 127.487 37.352 127.487 36.248C127.487 35.144 127.691 34.226 128.099 33.494C128.519 32.762 129.089 32.216 129.809 31.856C130.541 31.484 131.369 31.298 132.293 31.298C133.241 31.298 134.075 31.484 134.795 31.856C135.527 32.228 136.097 32.786 136.505 33.53C136.925 34.262 137.135 35.18 137.135 36.284C137.135 37.4 136.919 38.33 136.487 39.074C136.067 39.806 135.491 40.352 134.759 40.712C134.039 41.072 133.217 41.252 132.293 41.252ZM132.383 39.326C132.851 39.326 133.241 39.218 133.553 39.002C133.877 38.786 134.117 38.462 134.273 38.03C134.441 37.586 134.525 37.052 134.525 36.428C134.525 35.768 134.435 35.21 134.255 34.754C134.087 34.286 133.835 33.932 133.499 33.692C133.163 33.44 132.737 33.314 132.221 33.314C131.777 33.314 131.393 33.422 131.069 33.638C130.745 33.842 130.499 34.166 130.331 34.61C130.163 35.042 130.079 35.576 130.079 36.212C130.079 37.232 130.283 38.006 130.691 38.534C131.099 39.062 131.663 39.326 132.383 39.326ZM139.968 40.946C139.404 40.946 138.978 40.826 138.69 40.586C138.414 40.346 138.276 39.974 138.276 39.47C138.276 38.954 138.414 38.576 138.69 38.336C138.978 38.096 139.404 37.976 139.968 37.976C140.544 37.976 140.97 38.096 141.246 38.336C141.534 38.576 141.678 38.954 141.678 39.47C141.678 40.454 141.108 40.946 139.968 40.946ZM139.968 34.7C139.404 34.7 138.978 34.58 138.69 34.34C138.414 34.1 138.276 33.728 138.276 33.224C138.276 32.708 138.414 32.33 138.69 32.09C138.978 31.85 139.404 31.73 139.968 31.73C140.544 31.73 140.97 31.85 141.246 32.09C141.534 32.33 141.678 32.708 141.678 33.224C141.678 34.208 141.108 34.7 139.968 34.7Z" fill="#F8F9FA"/>
<g clip-path="url(#clip0_3002_958)">
<path d="M53.4934 77.0562C55.4615 77.0562 57.057 75.46 57.057 73.491C57.057 71.522 55.4615 69.9258 53.4934 69.9258C51.5252 69.9258 49.9297 71.522 49.9297 73.491C49.9297 75.46 51.5252 77.0562 53.4934 77.0562Z" fill="#F8F9FA"/>
<path d="M73.4826 73.4915C73.4826 70.6915 70.1971 68.2567 65.0863 66.7959C66.3727 61.6307 65.9207 57.5611 63.487 56.1698C61.0532 54.7611 57.3157 56.4133 53.4913 60.1002C49.6669 56.3959 45.9294 54.7611 43.4957 56.1698C41.4791 57.335 40.7316 60.2915 41.4096 64.5002C41.5313 65.248 41.7051 66.0133 41.8963 66.8133C36.7855 68.2741 33.5 70.7089 33.5 73.5089C33.5 76.3089 36.7855 78.7263 41.8963 80.2046C41.7051 80.9872 41.5313 81.7698 41.4096 82.5176C40.7316 86.7263 41.4791 89.6828 43.4957 90.848C44.0867 91.1959 44.7647 91.3698 45.5122 91.3698C47.2853 91.3698 49.4235 90.3959 51.7529 88.5002C52.3266 88.0307 52.9176 87.4915 53.4913 86.935C54.065 87.4915 54.656 88.0307 55.2297 88.5002C57.5591 90.3959 59.6973 91.3698 61.4704 91.3698C62.2179 91.3698 62.8959 91.1959 63.487 90.848C65.5035 89.6828 66.251 86.7263 65.5904 82.5176C65.4687 81.7698 65.2949 81.0046 65.1037 80.2046C70.2145 78.7437 73.5 76.3089 73.5 73.5089L73.4826 73.4915ZM62.6178 57.6654C64.1823 58.5698 64.53 61.8741 63.4 66.3611C61.766 65.9785 59.9754 65.7002 58.0806 65.5263C56.9854 63.9785 55.8381 62.5698 54.7082 61.335C57.3505 58.7785 59.8016 57.3872 61.4878 57.3872C61.9224 57.3872 62.3049 57.4741 62.6352 57.6654H62.6178ZM59.0715 76.7089C58.4457 77.7698 57.8025 78.8133 57.1419 79.7872C55.9772 79.8741 54.7603 79.9263 53.5087 79.9263C52.2571 79.9263 51.0402 79.8741 49.8755 79.7872C49.2149 78.8133 48.5543 77.7698 47.9459 76.7089C47.3201 75.6307 46.7638 74.5698 46.2423 73.4915C46.7638 72.4133 47.3201 71.3524 47.9459 70.2741C48.5717 69.1785 49.2323 68.1524 49.8755 67.1959C51.0402 67.1089 52.2571 67.0567 53.5087 67.0567C54.7603 67.0567 55.9772 67.1089 57.1419 67.1959C57.8025 68.1524 58.4457 69.1785 59.0715 70.2741C59.6799 71.335 60.2536 72.4133 60.7751 73.4915C60.271 74.5524 59.7147 75.6133 59.0715 76.7089ZM61.6791 75.5263C62.1658 76.6915 62.583 77.822 62.9307 78.935C61.8181 79.1785 60.6186 79.4046 59.3496 79.5611C59.7668 78.9176 60.1667 78.2567 60.5665 77.5785C60.9663 76.9002 61.3314 76.2046 61.6791 75.5263ZM53.4913 84.3959C52.709 83.5437 51.9268 82.6046 51.1619 81.5959C51.9268 81.6307 52.6917 81.648 53.4913 81.648C54.291 81.648 55.0558 81.6307 55.8207 81.5959C55.0558 82.6046 54.2736 83.5263 53.4913 84.3959ZM47.633 79.5611C46.364 79.4046 45.1645 79.1959 44.0519 78.935C44.3996 77.822 44.8168 76.6915 45.3036 75.5263C45.6512 76.2046 46.0163 76.9002 46.4161 77.5785C46.8159 78.2567 47.2158 78.9176 47.633 79.5611ZM45.3036 71.4393C44.8168 70.2741 44.3996 69.1437 44.0519 68.0307C45.1645 67.7872 46.364 67.5611 47.633 67.4046C47.2158 68.048 46.8159 68.7089 46.4161 69.3872C46.0163 70.0654 45.6512 70.7437 45.3036 71.4393ZM53.4913 62.5698C54.2562 63.4046 55.0385 64.3437 55.8207 65.3698C55.0558 65.335 54.291 65.3176 53.4913 65.3176C52.6917 65.3176 51.9268 65.335 51.1619 65.3698C51.9442 64.3437 52.709 63.4046 53.4913 62.5698ZM60.5665 69.4046C60.1667 68.7263 59.7668 68.0654 59.3496 67.422C60.6186 67.5785 61.8181 67.7872 62.9307 68.048C62.6004 69.1437 62.1832 70.2741 61.6791 71.4567C61.3314 70.7785 60.9489 70.0828 60.5665 69.4046ZM43.1132 64.222C42.5743 60.8307 43.0263 58.448 44.3648 57.6828C44.6951 57.4915 45.0776 57.4046 45.5122 57.4046C47.1984 57.4046 49.6495 58.7959 52.2918 61.3524C51.1445 62.5872 50.0146 63.9959 48.9194 65.5437C47.0246 65.7176 45.234 65.9959 43.6 66.3785C43.4087 65.648 43.2523 64.9176 43.148 64.2393L43.1132 64.222ZM35.2384 73.4915C35.2384 71.6828 37.9155 69.735 42.3657 68.4654C42.8698 70.0828 43.5304 71.7698 44.3127 73.4915C43.5304 75.1959 42.8698 76.8828 42.3657 78.5176C37.9329 77.248 35.2384 75.3176 35.2384 73.4915ZM50.6578 87.1089C47.998 89.2654 45.7034 90.0654 44.3648 89.3002C43.0263 88.535 42.5743 86.135 43.1132 82.7611C43.2175 82.0654 43.3914 81.3524 43.5652 80.622C45.1993 81.0046 46.9898 81.2828 48.8846 81.4567C49.9798 82.9872 51.1097 84.4133 52.2571 85.6654C51.7182 86.1872 51.1793 86.6915 50.6404 87.1263L50.6578 87.1089ZM63.8694 82.7611C64.4083 86.1524 63.9563 88.535 62.6178 89.3002C61.2792 90.0654 58.9846 89.2654 56.3249 87.1089C55.786 86.6741 55.2471 86.1698 54.7082 85.648C55.8729 84.3959 57.0028 82.9872 58.0806 81.4567C59.9754 81.2828 61.766 81.0046 63.4 80.622C63.5913 81.3524 63.7477 82.0828 63.852 82.7611H63.8694ZM64.6169 78.5002C64.1128 76.8828 63.4522 75.1959 62.6699 73.4741C63.4696 71.735 64.1128 70.048 64.6169 68.448C69.0671 69.7176 71.7442 71.648 71.7442 73.4741C71.7442 75.3002 69.0671 77.2307 64.6169 78.5002Z" fill="#F8F9FA"/>
</g>
<path d="M33.3448 113V102.44H37.0248C37.5581 102.44 38.0434 102.483 38.4808 102.568C38.9288 102.653 39.3234 102.781 39.6648 102.952C40.0168 103.123 40.3101 103.331 40.5448 103.576C40.7901 103.821 40.9714 104.109 41.0888 104.44C41.2168 104.76 41.2808 105.117 41.2808 105.512C41.2808 105.885 41.2221 106.227 41.1048 106.536C40.9981 106.845 40.8328 107.117 40.6088 107.352C40.3848 107.587 40.1074 107.779 39.7768 107.928C39.4461 108.067 39.0621 108.163 38.6248 108.216V108.424C39.0088 108.467 39.3448 108.568 39.6328 108.728C39.9208 108.888 40.1661 109.123 40.3688 109.432C40.5714 109.731 40.7474 110.131 40.8968 110.632L41.5688 113H39.9848L39.4408 110.84C39.3448 110.403 39.1794 110.051 38.9448 109.784C38.7208 109.517 38.4381 109.32 38.0968 109.192C37.7554 109.064 37.3554 109 36.8968 109H34.8168V113H33.3448ZM34.8168 107.8H36.8968C37.8461 107.8 38.5608 107.629 39.0408 107.288C39.5314 106.947 39.7768 106.424 39.7768 105.72C39.7768 105.016 39.5421 104.499 39.0728 104.168C38.6141 103.827 37.8994 103.656 36.9288 103.656H34.8168V107.8ZM47.1441 113.208C46.4935 113.208 45.9175 113.112 45.4161 112.92C44.9255 112.717 44.5095 112.429 44.1681 112.056C43.8268 111.683 43.5708 111.24 43.4001 110.728C43.2295 110.216 43.1441 109.64 43.1441 109C43.1441 108.349 43.2295 107.752 43.4001 107.208C43.5708 106.664 43.8215 106.189 44.1521 105.784C44.4828 105.379 44.8881 105.069 45.3681 104.856C45.8481 104.632 46.3975 104.52 47.0161 104.52C47.5601 104.52 48.0561 104.611 48.5041 104.792C48.9521 104.973 49.3308 105.256 49.6401 105.64C49.9601 106.013 50.2001 106.488 50.3601 107.064C50.5201 107.629 50.5841 108.296 50.5521 109.064L44.0561 109.112V108.12L49.6721 108.072L49.1761 108.744C49.2295 108.072 49.1655 107.517 48.9841 107.08C48.8028 106.643 48.5415 106.312 48.2001 106.088C47.8695 105.864 47.4748 105.752 47.0161 105.752C46.5255 105.752 46.0935 105.88 45.7201 106.136C45.3468 106.392 45.0588 106.76 44.8561 107.24C44.6641 107.72 44.5681 108.301 44.5681 108.984C44.5681 109.965 44.7868 110.717 45.2241 111.24C45.6615 111.752 46.3121 112.008 47.1761 112.008C47.5068 112.008 47.7948 111.971 48.0401 111.896C48.2961 111.811 48.5095 111.699 48.6801 111.56C48.8615 111.411 49.0055 111.24 49.1121 111.048C49.2295 110.856 49.3201 110.648 49.3841 110.424L50.6641 110.728C50.5681 111.112 50.4188 111.459 50.2161 111.768C50.0241 112.067 49.7788 112.323 49.4801 112.536C49.1921 112.749 48.8561 112.915 48.4721 113.032C48.0881 113.149 47.6455 113.208 47.1441 113.208ZM54.5743 113.208C54.1263 113.208 53.7209 113.123 53.3583 112.952C52.9956 112.771 52.7076 112.509 52.4943 112.168C52.2809 111.816 52.1743 111.373 52.1743 110.84C52.1743 110.445 52.2436 110.099 52.3823 109.8C52.5316 109.501 52.7556 109.245 53.0543 109.032C53.3636 108.819 53.7582 108.643 54.2383 108.504C54.7183 108.365 55.3049 108.248 55.9983 108.152C56.3929 108.099 56.7129 108.045 56.9583 107.992C57.2143 107.939 57.4009 107.853 57.5183 107.736C57.6356 107.608 57.6943 107.421 57.6943 107.176C57.6943 106.771 57.5556 106.429 57.2783 106.152C57.0009 105.875 56.5636 105.736 55.9663 105.736C55.6569 105.736 55.3423 105.789 55.0223 105.896C54.7023 106.003 54.4196 106.184 54.1743 106.44C53.9396 106.685 53.7903 107.032 53.7263 107.48L52.3823 107.032C52.4676 106.648 52.6063 106.301 52.7983 105.992C53.0009 105.683 53.2569 105.421 53.5663 105.208C53.8756 104.984 54.2329 104.813 54.6383 104.696C55.0543 104.579 55.5129 104.52 56.0143 104.52C56.7076 104.52 57.2836 104.637 57.7423 104.872C58.2116 105.107 58.5583 105.469 58.7823 105.96C59.0169 106.44 59.1343 107.059 59.1343 107.816V109.656C59.1343 109.987 59.1396 110.349 59.1503 110.744C59.1716 111.128 59.1983 111.517 59.2303 111.912C59.2623 112.296 59.2943 112.659 59.3263 113H57.9823C57.9503 112.659 57.9183 112.317 57.8863 111.976C57.8649 111.635 57.8489 111.293 57.8383 110.952H57.6303C57.4703 111.347 57.2569 111.715 56.9903 112.056C56.7236 112.397 56.3876 112.675 55.9823 112.888C55.5876 113.101 55.1183 113.208 54.5743 113.208ZM55.0063 112.024C55.2409 112.024 55.4756 111.987 55.7103 111.912C55.9556 111.837 56.1956 111.715 56.4303 111.544C56.6756 111.373 56.9049 111.155 57.1183 110.888C57.3423 110.621 57.5396 110.301 57.7103 109.928V108.328L58.1263 108.408C57.9556 108.579 57.7263 108.707 57.4383 108.792C57.1609 108.877 56.8516 108.947 56.5103 109C56.1689 109.053 55.8276 109.112 55.4863 109.176C55.1449 109.229 54.8303 109.315 54.5423 109.432C54.2649 109.539 54.0409 109.693 53.8703 109.896C53.6996 110.099 53.6143 110.376 53.6143 110.728C53.6143 111.155 53.7423 111.48 53.9983 111.704C54.2543 111.917 54.5903 112.024 55.0063 112.024ZM65.1285 113.208C64.4032 113.208 63.7845 113.091 63.2725 112.856C62.7712 112.621 62.3605 112.307 62.0405 111.912C61.7312 111.517 61.5018 111.064 61.3525 110.552C61.2138 110.04 61.1445 109.507 61.1445 108.952C61.1445 108.344 61.2245 107.773 61.3845 107.24C61.5445 106.707 61.7845 106.237 62.1045 105.832C62.4352 105.416 62.8405 105.096 63.3205 104.872C63.8112 104.637 64.3818 104.52 65.0325 104.52C65.6618 104.52 66.2165 104.632 66.6965 104.856C67.1765 105.069 67.5658 105.373 67.8645 105.768C68.1738 106.163 68.3712 106.632 68.4565 107.176L67.0645 107.56C67.0432 107.261 66.9525 106.973 66.7925 106.696C66.6432 106.419 66.4192 106.195 66.1205 106.024C65.8218 105.843 65.4538 105.752 65.0165 105.752C64.6005 105.752 64.2432 105.832 63.9445 105.992C63.6565 106.152 63.4112 106.376 63.2085 106.664C63.0165 106.952 62.8672 107.288 62.7605 107.672C62.6645 108.056 62.6165 108.472 62.6165 108.92C62.6165 109.539 62.7018 110.077 62.8725 110.536C63.0538 110.995 63.3312 111.352 63.7045 111.608C64.0778 111.864 64.5578 111.992 65.1445 111.992C65.5818 111.992 65.9552 111.917 66.2645 111.768C66.5738 111.608 66.8192 111.389 67.0005 111.112C67.1818 110.824 67.2992 110.488 67.3525 110.104L68.6965 110.408C68.6218 110.867 68.4832 111.272 68.2805 111.624C68.0778 111.976 67.8218 112.269 67.5125 112.504C67.2032 112.728 66.8458 112.899 66.4405 113.016C66.0458 113.144 65.6085 113.208 65.1285 113.208ZM72.9338 113.16C72.1658 113.16 71.5951 112.952 71.2218 112.536C70.8484 112.12 70.6618 111.485 70.6618 110.632V105.944H69.4138L69.4298 104.728H70.2138C70.4804 104.728 70.6724 104.68 70.7898 104.584C70.9178 104.488 70.9924 104.328 71.0138 104.104L71.1738 102.856H72.0698V104.728H74.4538V105.96H72.0698V110.6C72.0698 111.027 72.1658 111.336 72.3578 111.528C72.5604 111.709 72.8484 111.8 73.2218 111.8C73.4244 111.8 73.6324 111.773 73.8458 111.72C74.0698 111.667 74.2884 111.56 74.5018 111.4V112.856C74.1924 112.973 73.9044 113.053 73.6378 113.096C73.3818 113.139 73.1471 113.16 72.9338 113.16Z" fill="#F8F9FA"/>
<g clip-path="url(#clip1_3002_958)">
<path d="M133.5 59L113.499 93.6422L93.5 59H101.5L113.499 79.7847L125.5 59H133.5Z" fill="#F8F9FA"/>
<path d="M123.739 59L113.501 76.7284L103.266 59H108.883L113.501 67L118.121 59H123.739Z" fill="#F8F9FA"/>
</g>
<path d="M95.6358 113L91.9878 102.44H93.5878L96.6118 111.688H96.7718L99.8278 102.44H101.412L97.7318 113H95.6358ZM105.443 113.208C104.526 113.208 103.833 112.888 103.363 112.248C102.894 111.608 102.659 110.653 102.659 109.384V104.728H104.131V109.256C104.131 110.152 104.27 110.819 104.547 111.256C104.825 111.693 105.262 111.912 105.859 111.912C106.19 111.912 106.483 111.832 106.739 111.672C107.006 111.512 107.241 111.283 107.443 110.984C107.646 110.685 107.811 110.333 107.939 109.928C108.067 109.512 108.153 109.064 108.195 108.584V104.728H109.651V109.544V113H108.355L108.483 110.344H108.243C108.105 111.005 107.907 111.549 107.651 111.976C107.406 112.392 107.097 112.701 106.723 112.904C106.35 113.107 105.923 113.208 105.443 113.208ZM115.73 113.208C115.079 113.208 114.503 113.112 114.002 112.92C113.511 112.717 113.095 112.429 112.754 112.056C112.413 111.683 112.157 111.24 111.986 110.728C111.815 110.216 111.73 109.64 111.73 109C111.73 108.349 111.815 107.752 111.986 107.208C112.157 106.664 112.407 106.189 112.738 105.784C113.069 105.379 113.474 105.069 113.954 104.856C114.434 104.632 114.983 104.52 115.602 104.52C116.146 104.52 116.642 104.611 117.09 104.792C117.538 104.973 117.917 105.256 118.226 105.64C118.546 106.013 118.786 106.488 118.946 107.064C119.106 107.629 119.17 108.296 119.138 109.064L112.642 109.112V108.12L118.258 108.072L117.762 108.744C117.815 108.072 117.751 107.517 117.57 107.08C117.389 106.643 117.127 106.312 116.786 106.088C116.455 105.864 116.061 105.752 115.602 105.752C115.111 105.752 114.679 105.88 114.306 106.136C113.933 106.392 113.645 106.76 113.442 107.24C113.25 107.72 113.154 108.301 113.154 108.984C113.154 109.965 113.373 110.717 113.81 111.24C114.247 111.752 114.898 112.008 115.762 112.008C116.093 112.008 116.381 111.971 116.626 111.896C116.882 111.811 117.095 111.699 117.266 111.56C117.447 111.411 117.591 111.24 117.698 111.048C117.815 110.856 117.906 110.648 117.97 110.424L119.25 110.728C119.154 111.112 119.005 111.459 118.802 111.768C118.61 112.067 118.365 112.323 118.066 112.536C117.778 112.749 117.442 112.915 117.058 113.032C116.674 113.149 116.231 113.208 115.73 113.208ZM121.4 113.192C121.059 113.192 120.803 113.117 120.632 112.968C120.462 112.819 120.376 112.579 120.376 112.248C120.376 111.928 120.462 111.693 120.632 111.544C120.803 111.395 121.059 111.32 121.4 111.32C121.752 111.32 122.014 111.395 122.184 111.544C122.366 111.693 122.456 111.933 122.456 112.264C122.456 112.883 122.104 113.192 121.4 113.192ZM123.363 115.944C123.225 115.944 123.075 115.928 122.915 115.896C122.755 115.875 122.585 115.837 122.403 115.784L122.291 114.44C122.985 114.6 123.486 114.6 123.795 114.44C124.115 114.28 124.275 113.875 124.275 113.224V104.728H125.747V113.064C125.747 113.533 125.694 113.949 125.587 114.312C125.491 114.675 125.347 114.973 125.155 115.208C124.963 115.453 124.718 115.635 124.419 115.752C124.121 115.88 123.769 115.944 123.363 115.944ZM125.011 103.288C124.67 103.288 124.414 103.219 124.243 103.08C124.073 102.941 123.987 102.733 123.987 102.456C123.987 102.179 124.073 101.971 124.243 101.832C124.414 101.693 124.665 101.624 124.995 101.624C125.337 101.624 125.593 101.693 125.763 101.832C125.934 101.971 126.019 102.179 126.019 102.456C126.019 102.723 125.934 102.931 125.763 103.08C125.593 103.219 125.342 103.288 125.011 103.288ZM131.344 113.208C130.768 113.208 130.256 113.144 129.808 113.016C129.36 112.899 128.986 112.728 128.688 112.504C128.389 112.269 128.16 111.992 128 111.672C127.84 111.352 127.754 111 127.744 110.616L128.976 110.296C128.954 110.648 129.04 110.957 129.232 111.224C129.434 111.48 129.717 111.677 130.08 111.816C130.453 111.955 130.901 112.024 131.424 112.024C132.053 112.024 132.538 111.917 132.88 111.704C133.232 111.491 133.408 111.197 133.408 110.824C133.408 110.525 133.312 110.296 133.12 110.136C132.928 109.965 132.661 109.832 132.32 109.736C131.989 109.629 131.594 109.533 131.136 109.448C130.752 109.363 130.368 109.267 129.984 109.16C129.6 109.053 129.248 108.915 128.928 108.744C128.618 108.563 128.368 108.328 128.176 108.04C127.984 107.752 127.888 107.395 127.888 106.968C127.888 106.467 128.021 106.035 128.288 105.672C128.554 105.309 128.933 105.027 129.424 104.824C129.914 104.621 130.501 104.52 131.184 104.52C131.866 104.52 132.448 104.627 132.928 104.84C133.408 105.043 133.786 105.331 134.064 105.704C134.341 106.077 134.496 106.515 134.528 107.016L133.264 107.336C133.253 106.984 133.157 106.685 132.976 106.44C132.805 106.195 132.56 106.013 132.24 105.896C131.92 105.768 131.546 105.704 131.12 105.704C130.554 105.704 130.106 105.811 129.776 106.024C129.445 106.237 129.28 106.531 129.28 106.904C129.28 107.181 129.376 107.405 129.568 107.576C129.77 107.747 130.042 107.88 130.384 107.976C130.725 108.072 131.104 108.168 131.52 108.264C131.946 108.349 132.352 108.445 132.736 108.552C133.13 108.659 133.482 108.797 133.792 108.968C134.101 109.139 134.346 109.368 134.528 109.656C134.709 109.933 134.8 110.291 134.8 110.728C134.8 111.272 134.656 111.731 134.368 112.104C134.08 112.467 133.674 112.744 133.152 112.936C132.64 113.117 132.037 113.208 131.344 113.208Z" fill="#F8F9FA"/>
<defs>
<clipPath id="clip0_3002_958">
<rect width="40" height="40" fill="white" transform="translate(33.5 54)"/>
</clipPath>
<clipPath id="clip1_3002_958">
<rect width="40" height="40" fill="white" transform="translate(93.5 54)"/>
</clipPath>
</defs>
</svg>
